<?xml version="1.0" encoding="utf-8"?>
<!-- Generator: Adobe Illustrator 17.1.0, SVG Export Plug-In . SVG Version: 6.00 Build 0)  -->
<!DOCTYPE svg PUBLIC "-//W3C//DTD SVG 1.1//EN" "http://www.w3.org/Graphics/SVG/1.1/DTD/svg11.dtd">
<svg version="1.1" xmlns="http://www.w3.org/2000/svg" xmlns:xlink="http://www.w3.org/1999/xlink" x="0px" y="0px"
	 viewBox="0 0 90 90" style="enable-background:new 0 0 90 90;" xml:space="preserve">
<style type="text/css">
	.st0{fill:#959595;}
	.st1{fill:#D0D0D0;}
	.st2{fill:#373737;}
	.st3{fill:none;stroke:#959595;stroke-width:4;stroke-linecap:square;stroke-miterlimit:10;}
	.st4{fill:#FFFFFF;}
</style>
<g id="Layer_1">
	<path class="st1" d="M18,0v12H6v78h66V78h12V0H18z M66,84H12V18h6v60h48V84z M78,72h-6h-6H24V18v-6V6h54V72z"/>
	<rect x="30" y="12" class="st1" width="42" height="9"/>
	<rect x="30" y="27" class="st1" width="6" height="3"/>
	<rect x="42" y="27" class="st1" width="30" height="3"/>
	<rect x="30" y="36" class="st1" width="6" height="3"/>
	<rect x="42" y="36" class="st1" width="30" height="3"/>
	<rect x="30" y="45" class="st1" width="6" height="3"/>
	<rect x="42" y="45" class="st1" width="30" height="3"/>
	<rect x="30" y="54" class="st1" width="6" height="3"/>
	<rect x="42" y="54" class="st1" width="30" height="3"/>
	<rect x="30" y="63" class="st1" width="6" height="3"/>
	<rect x="42" y="63" class="st1" width="30" height="3"/>
</g>
<g id="Layer_2">
</g>
</svg>
